<?xml version="1.0" standalone="no"?>
<!DOCTYPE svg PUBLIC "-//W3C//DTD SVG 20010904//EN"
 "http://www.w3.org/TR/2001/REC-SVG-20010904/DTD/svg10.dtd">
<svg version="1.0" xmlns="http://www.w3.org/2000/svg"
 width="2000.000000pt" height="2000.000000pt" viewBox="408 624 1200 747"
 preserveAspectRatio="xMidYMid meet">

<rect width="2000" height="2000" fill="#FFFFFF" />
<g transform="translate(0.000000,2000.000000) scale(0.100000,-0.100000)"
fill="#0066FF" stroke="none">
<path d="M4120 10025 l0 -3735 5980 0 5980 0 0 3735 0 3735 -5980 0 -5980 0 0
-3735z m9450 3257 c90 -11 98 -12 230 -44 105 -25 180 -49 253 -83 31 -14 59
-25 62 -25 14 0 135 -63 146 -76 6 -8 17 -14 23 -14 11 0 33 -14 152 -94 65
-44 182 -144 259 -221 56 -56 217 -265 258 -335 41 -71 137 -265 137 -279 0
-7 7 -25 15 -39 21 -38 37 -79 51 -137 7 -27 20 -79 29 -115 58 -230 69 -546
27 -783 -29 -168 -46 -212 -90 -242 -45 -31 -63 -31 -120 -4 -76 37 -86 96
-44 274 21 85 23 487 4 602 -10 60 -72 270 -100 338 -23 55 -118 241 -129 250
-6 6 -27 35 -47 65 -61 93 -68 103 -140 180 -59 65 -112 112 -251 223 -59 47
-266 161 -360 199 -112 44 -151 53 -405 99 -113 20 -518 -5 -546 -33 -4 -5
-17 -8 -29 -8 -30 0 -167 -45 -230 -75 -27 -13 -84 -39 -125 -58 -231 -108
-494 -334 -625 -537 -16 -25 -37 -54 -46 -65 -26 -30 -130 -223 -151 -280 -11
-27 -31 -84 -44 -125 -14 -41 -29 -84 -34 -95 -17 -41 -41 -185 -54 -325 -23
-240 15 -555 88 -740 36 -91 68 -167 78 -185 6 -11 23 -42 38 -70 40 -75 74
-126 109 -164 17 -18 31 -37 31 -41 0 -5 42 -52 93 -105 128 -133 145 -170
112 -234 -27 -53 -71 -81 -126 -81 -49 0 -52 2 -121 73 -39 39 -93 100 -120
135 -27 34 -53 62 -57 62 -4 0 -13 12 -19 26 -7 14 -33 58 -59 97 -47 72 -167
301 -192 367 -12 33 -31 94 -67 220 -36 127 -47 226 -51 455 -3 135 0 244 6
265 5 19 17 78 26 130 18 102 58 253 83 310 8 19 18 44 22 55 23 58 86 192 97
206 7 8 13 20 13 25 0 10 55 97 125 200 59 87 158 208 204 250 23 20 41 42 41
49 0 7 10 20 23 28 13 8 47 37 76 63 103 94 292 223 396 269 33 15 72 36 87
46 14 11 34 19 43 19 9 0 46 14 82 30 35 17 70 30 76 30 7 0 41 9 75 20 35 11
77 20 93 20 16 0 37 5 47 10 54 33 379 45 572 22z m5 -681 c44 -10 96 -24 115
-31 19 -7 65 -24 101 -37 36 -13 86 -36 111 -52 25 -16 56 -32 69 -36 13 -4
40 -20 59 -35 19 -15 42 -31 52 -36 28 -15 155 -140 205 -201 76 -92 106 -135
130 -183 13 -25 27 -52 32 -60 38 -59 97 -235 118 -350 22 -118 26 -183 18
-254 -6 -56 -10 -63 -43 -85 -71 -47 -187 -21 -196 44 -22 157 -47 300 -61
345 -9 30 -20 71 -25 90 -12 46 -86 182 -134 245 -61 81 -157 175 -219 216
-32 22 -62 39 -66 39 -5 0 -14 6 -20 14 -7 8 -24 17 -39 21 -15 4 -29 10 -32
15 -9 14 -195 71 -270 81 -94 14 -330 3 -378 -17 -19 -8 -42 -14 -51 -14 -9 0
-29 -7 -45 -15 -15 -8 -34 -15 -41 -15 -12 0 -105 -49 -198 -104 -120 -72
-304 -283 -369 -426 -78 -170 -127 -393 -113 -516 19 -165 73 -374 111 -428 8
-11 14 -27 14 -34 0 -8 14 -30 31 -50 29 -32 31 -40 27 -94 -4 -50 -9 -63 -38
-93 -39 -40 -72 -45 -135 -18 -31 12 -51 32 -81 77 -76 116 -137 280 -153 414
-6 46 -13 87 -16 92 -9 15 -6 381 3 394 5 6 12 33 16 60 8 67 48 186 77 236
11 18 23 44 44 90 43 99 131 226 211 304 12 12 23 26 25 33 8 24 147 135 239
190 52 32 97 61 98 65 2 5 11 8 21 8 9 0 26 7 37 15 21 14 81 38 144 57 19 5
39 14 45 19 5 5 23 9 40 9 16 0 53 7 80 14 79 22 350 20 450 -3z m-140 -671
c173 -28 366 -177 420 -325 11 -27 25 -60 33 -72 31 -50 49 -247 32 -352 -27
-164 -115 -303 -134 -210 -3 17 -6 50 -6 73 -1 57 -33 202 -58 256 -38 85
-138 171 -240 206 -82 29 -146 30 -235 4 -130 -37 -207 -99 -276 -223 -48 -86
-57 -154 -39 -293 9 -66 21 -144 27 -174 18 -92 8 -87 -137 68 -17 18 -34 42
-38 54 -4 12 -13 28 -20 36 -8 7 -14 22 -14 33 0 11 -6 32 -14 47 -21 42 -46
165 -46 229 0 207 96 399 260 522 83 63 104 73 205 107 75 25 183 30 280 14z
m49 -574 c56 -27 124 -92 150 -143 9 -18 23 -68 31 -110 8 -43 21 -109 30
-148 24 -112 45 -215 59 -290 8 -38 18 -83 25 -98 6 -16 11 -47 11 -71 0 -23
4 -46 9 -51 5 -6 14 -37 19 -70 15 -91 41 -216 52 -251 6 -17 10 -44 10 -62 0
-17 4 -33 8 -36 4 -2 30 17 57 43 65 61 98 82 165 103 58 19 185 24 194 9 3
-5 21 -12 40 -15 19 -4 39 -13 46 -21 7 -8 18 -15 24 -15 7 0 25 -13 40 -29
l27 -29 27 25 c82 77 260 114 359 77 27 -10 54 -24 61 -31 7 -7 19 -13 26 -13
14 0 86 -68 86 -82 0 -4 11 -8 25 -8 14 0 25 4 25 10 0 5 12 13 28 16 15 4 36
13 47 20 27 19 149 18 183 0 15 -8 43 -22 63 -31 58 -26 119 -93 155 -173 19
-40 34 -83 34 -96 0 -12 4 -26 10 -32 10 -10 33 -112 51 -219 5 -33 12 -67 15
-75 3 -8 12 -51 21 -95 8 -44 21 -114 29 -155 23 -114 48 -255 77 -425 17 -99
16 -477 -2 -535 -17 -58 -41 -121 -52 -140 -5 -8 -14 -26 -19 -39 -43 -100
-195 -261 -335 -356 -104 -71 -260 -150 -355 -181 -30 -9 -69 -23 -87 -31 -17
-7 -38 -13 -48 -13 -9 0 -37 -6 -63 -14 -140 -41 -500 -62 -622 -35 -25 5 -67
13 -95 18 -70 12 -145 31 -180 46 -16 7 -52 21 -80 30 -53 19 -192 85 -237
113 -14 9 -48 30 -75 46 -26 16 -50 32 -53 35 -3 4 -17 14 -31 23 -14 9 -46
34 -71 55 -25 21 -67 56 -94 78 -68 56 -153 134 -344 315 -295 281 -461 420
-497 420 -37 0 -145 65 -180 107 -36 44 -38 51 -41 127 -3 71 -1 84 17 105 12
13 21 27 21 31 0 13 89 99 118 114 94 48 153 60 307 60 145 0 216 -10 300 -44
11 -5 31 -12 45 -17 47 -15 185 -93 215 -121 76 -70 134 -94 121 -49 -4 12
-11 51 -17 86 -5 35 -12 67 -15 72 -3 6 -12 51 -21 102 -8 51 -21 126 -28 167
-8 41 -21 113 -29 160 -8 47 -17 92 -21 101 -3 9 -10 47 -15 85 -14 102 -38
243 -49 289 -6 22 -11 59 -11 82 0 23 -5 54 -11 70 -6 15 -15 57 -19 93 -5 36
-13 90 -19 120 -6 30 -18 100 -26 155 -9 55 -23 136 -31 180 -8 44 -19 109
-24 145 -6 36 -15 92 -21 125 -31 171 37 316 181 388 46 23 67 27 138 27 69 0
95 -5 136 -24z m-2444 -402 c24 -5 43 -22 77 -67 40 -56 43 -62 26 -71 -13 -8
-734 -13 -2388 -17 -2095 -5 -2382 -8 -2470 -22 -136 -21 -244 -43 -278 -56
-16 -6 -41 -11 -56 -11 -15 0 -31 -4 -37 -9 -5 -6 -27 -14 -49 -20 -38 -9 -87
-25 -130 -42 -11 -4 -49 -20 -85 -34 -94 -38 -203 -94 -314 -161 -53 -32 -105
-63 -114 -69 -10 -5 -26 -17 -35 -25 -10 -8 -23 -19 -30 -25 -246 -199 -393
-375 -504 -605 -73 -152 -88 -195 -121 -355 -23 -111 -22 -363 0 -465 43 -191
57 -234 102 -327 14 -29 26 -56 26 -59 0 -7 69 -123 83 -139 4 -5 29 -39 55
-75 78 -108 177 -214 291 -310 53 -44 277 -200 288 -200 3 0 27 -12 52 -28 38
-23 178 -87 319 -148 18 -8 43 -14 55 -14 13 0 28 -5 33 -10 16 -16 176 -58
304 -80 30 -6 73 -14 95 -20 22 -5 131 -17 243 -25 176 -13 668 -15 3664 -15
2570 0 3464 -3 3474 -11 9 -7 14 -32 14 -65 0 -50 -2 -55 -26 -65 -18 -6
-1236 -9 -3623 -7 -3398 3 -3602 4 -3701 21 -238 41 -358 67 -418 93 -18 8
-45 14 -60 14 -16 0 -37 7 -48 15 -10 8 -30 15 -42 15 -13 0 -36 6 -50 14 -53
27 -119 56 -129 56 -12 0 -63 23 -113 51 -19 11 -62 33 -95 49 -65 33 -70 36
-159 96 -126 83 -173 119 -245 183 -186 164 -308 313 -402 487 -40 75 -56 106
-72 144 -9 19 -23 51 -31 72 -9 20 -16 42 -16 50 0 7 -7 22 -15 32 -8 11 -15
32 -15 47 0 15 -5 40 -10 54 -18 47 -40 235 -40 334 1 143 45 419 71 446 5 5
9 15 9 23 0 8 7 30 16 50 8 21 21 51 28 67 28 66 90 183 125 233 20 29 41 63
48 74 36 65 313 348 394 403 24 16 46 33 49 36 5 6 185 123 225 146 45 27 184
93 194 93 6 0 11 5 11 10 0 6 5 10 11 10 6 0 25 6 42 14 61 28 112 48 142 56
17 5 62 20 100 33 115 41 289 83 380 92 33 4 74 11 90 16 17 5 98 13 180 18
177 10 4558 14 4605 5z m-4977 -685 c51 -11 100 -25 109 -30 10 -5 23 -9 30
-9 23 0 176 -84 210 -116 53 -49 98 -106 98 -124 0 -9 6 -22 13 -28 16 -17 22
-270 8 -354 -25 -142 -30 -167 -39 -184 -5 -11 -19 -40 -30 -66 -27 -61 -65
-81 -136 -75 -80 7 -134 25 -191 63 -49 32 -105 91 -105 111 0 4 -8 22 -17 38
-12 23 -16 61 -17 172 -1 78 -4 145 -8 149 -4 4 -29 -15 -55 -43 -55 -58 -57
-60 -103 -133 -19 -30 -41 -64 -48 -75 -7 -11 -17 -32 -23 -47 -6 -16 -15 -28
-20 -28 -5 0 -9 -6 -9 -14 0 -8 -13 -41 -30 -73 -83 -163 -140 -336 -161 -483
-32 -234 -14 -376 44 -346 49 26 71 44 190 159 44 42 92 80 106 84 14 3 36 13
48 21 32 20 226 12 268 -11 17 -9 36 -17 43 -17 7 0 17 -11 22 -24 5 -13 14
-27 19 -31 6 -3 11 -34 10 -68 0 -55 -6 -73 -52 -161 -58 -108 -148 -216 -237
-285 -53 -40 -158 -91 -190 -91 -8 0 -33 -7 -55 -15 -98 -35 -279 -10 -480 67
-108 41 -148 69 -204 143 -93 124 -113 199 -113 435 0 102 5 205 11 230 5 25
17 74 25 110 26 117 42 174 70 245 15 39 34 88 43 110 19 51 145 308 153 315
3 3 17 23 30 45 13 22 26 42 30 45 3 3 19 25 35 50 83 125 334 329 405 330 8
0 33 7 55 15 57 20 142 18 248 -6z m3292 3 c126 -41 162 -52 172 -52 24 0 168
-95 211 -140 71 -74 96 -151 96 -300 0 -95 -21 -271 -34 -284 -6 -6 -10 -24
-10 -42 0 -41 -43 -127 -77 -153 -34 -28 -95 -27 -186 1 -95 29 -128 49 -175
111 -57 74 -77 158 -67 287 7 108 1 123 -39 93 -49 -37 -186 -230 -186 -262 0
-6 -4 -11 -10 -11 -5 0 -10 -9 -10 -19 0 -11 -4 -22 -9 -25 -11 -7 -91 -172
-91 -189 0 -7 -7 -21 -15 -31 -8 -11 -15 -29 -15 -40 0 -12 -7 -30 -15 -40 -8
-11 -15 -28 -15 -39 0 -11 -7 -40 -15 -66 -30 -96 -45 -190 -47 -297 -2 -125
10 -159 60 -169 74 -15 77 -18 74 -64 -1 -23 -11 -68 -21 -99 -10 -31 -26 -84
-35 -117 -10 -33 -24 -75 -32 -93 -8 -18 -14 -41 -14 -51 0 -33 -26 -44 -88
-38 -32 4 -72 13 -88 22 -16 8 -36 15 -44 15 -8 0 -28 7 -44 15 -15 8 -36 15
-46 15 -10 0 -25 6 -32 14 -8 7 -24 16 -35 20 -43 14 -126 110 -174 204 -50
96 -71 301 -49 477 17 134 45 268 70 330 5 11 20 56 33 100 72 228 251 548
385 688 47 49 230 187 248 187 8 0 14 4 14 9 0 5 21 15 48 22 26 7 58 16 72
20 33 10 197 3 235 -9z m-2340 -10 c22 -5 54 -17 70 -26 17 -9 33 -16 37 -16
4 0 31 -14 60 -32 141 -85 173 -135 148 -231 -7 -29 -19 -63 -26 -77 -7 -14
-23 -56 -35 -95 -12 -38 -28 -84 -35 -102 -8 -17 -14 -37 -14 -45 0 -8 -4 -18
-9 -24 -4 -5 -18 -43 -31 -84 -12 -41 -29 -87 -36 -102 -8 -14 -14 -35 -14
-47 0 -11 -6 -35 -14 -53 -7 -18 -18 -49 -24 -68 -28 -97 -56 -189 -67 -220
-7 -19 -23 -69 -35 -110 -12 -41 -29 -94 -36 -118 -16 -50 -16 -53 -5 -71 6
-10 13 -10 28 -2 28 15 247 30 316 22 42 -5 64 -14 82 -32 36 -37 95 -163 102
-219 5 -43 8 -48 23 -40 12 6 19 27 23 64 3 30 13 88 22 128 8 40 22 107 31
148 8 41 21 96 29 121 8 26 15 57 15 70 0 13 6 44 14 69 20 64 36 126 47 189
5 30 13 59 17 65 4 6 13 36 20 66 37 162 67 282 75 300 4 8 11 33 16 55 5 22
19 74 31 115 11 41 25 91 30 110 43 167 72 228 122 255 33 18 43 18 106 7 123
-21 308 -121 349 -190 27 -44 29 -75 7 -145 -30 -94 -74 -231 -85 -262 -6 -16
-15 -46 -19 -65 -4 -19 -13 -50 -19 -67 -6 -18 -16 -48 -22 -65 -6 -18 -14
-49 -18 -69 -4 -19 -12 -42 -17 -50 -5 -8 -14 -36 -21 -64 -25 -107 -38 -154
-46 -161 -4 -4 -7 -18 -7 -30 0 -13 -6 -43 -14 -66 -15 -47 -62 -209 -102
-355 -8 -32 -22 -79 -30 -104 -8 -26 -14 -57 -14 -70 0 -13 -7 -37 -15 -53 -8
-15 -15 -38 -15 -49 0 -40 -45 -169 -67 -193 -18 -20 -32 -24 -81 -24 -36 0
-66 6 -78 15 -10 8 -31 15 -45 15 -14 0 -34 7 -45 15 -10 8 -26 15 -35 15 -26
0 -127 80 -137 109 -6 14 -17 35 -25 45 -14 19 -15 19 -22 -3 -8 -25 -75 -60
-115 -61 -15 0 -30 -4 -35 -9 -6 -5 -37 -14 -70 -20 -33 -5 -91 -17 -130 -25
-38 -9 -97 -20 -130 -26 -58 -11 -172 -39 -247 -62 -43 -13 -115 -5 -157 16
-39 21 -198 173 -227 218 -46 72 -39 200 22 414 8 28 14 60 14 72 0 11 5 33
12 49 6 15 17 53 24 83 11 52 24 98 58 223 30 108 46 163 57 207 6 25 15 54
19 65 16 45 49 154 65 215 9 36 23 81 30 100 8 19 23 68 35 107 12 40 26 75
31 78 5 4 9 16 9 28 0 12 6 34 14 49 8 15 17 39 21 55 9 40 55 103 90 124 31
19 74 19 150 1z m4221 2 c22 -9 43 -22 47 -30 4 -8 14 -14 21 -14 19 0 99
-107 124 -167 38 -90 25 -184 -40 -288 -26 -40 -159 -211 -197 -253 -109 -120
-233 -251 -360 -380 -78 -78 -141 -149 -141 -157 0 -17 41 -99 52 -103 4 -2 8
-17 8 -32 0 -26 -5 -30 -37 -36 -32 -6 -34 -8 -16 -15 67 -24 153 -172 153
-262 0 -69 -53 -155 -130 -208 -19 -13 -37 -27 -40 -30 -3 -3 -26 -18 -52 -33
-27 -15 -51 -32 -54 -37 -6 -10 59 -96 131 -173 25 -27 45 -59 45 -71 0 -51
-84 -90 -168 -78 -37 5 -54 17 -116 77 -40 39 -79 82 -88 95 -23 32 -46 21
-53 -26 -3 -21 -12 -51 -20 -66 -8 -16 -15 -35 -15 -42 0 -40 -64 -56 -140
-35 -62 17 -85 87 -59 185 29 113 52 215 58 258 4 26 13 53 19 59 7 7 12 27
12 45 0 78 98 283 135 283 7 0 26 6 42 14 63 31 105 46 136 47 22 1 16 4 -21
9 -29 4 -103 6 -165 5 -62 -2 -126 -4 -144 -4 l-32 -1 24 -24 c31 -31 49 -98
38 -145 l-9 -36 -79 -9 c-107 -11 -185 -34 -191 -54 -3 -10 -10 -25 -15 -34
-16 -31 0 -48 46 -48 24 0 51 -3 60 -6 19 -8 65 -106 65 -138 0 -51 -16 -58
-188 -92 -85 -16 -92 -19 -92 -43 0 -16 9 -17 83 -13 l83 4 27 -32 c15 -17 27
-40 27 -50 0 -10 5 -22 10 -25 6 -3 10 -21 10 -39 0 -47 -32 -72 -110 -85 -36
-6 -83 -15 -105 -20 -123 -31 -149 -33 -186 -17 -43 18 -106 85 -115 123 -10
36 49 306 92 426 8 20 14 47 14 58 0 12 7 42 15 68 8 25 22 72 30 103 9 31 22
62 29 67 7 6 35 14 62 17 27 4 58 11 69 17 11 5 56 13 100 17 75 7 71 7 -56 9
-175 1 -177 2 -160 102 7 41 16 78 22 84 5 5 9 20 9 35 0 14 6 45 14 70 8 25
24 83 36 130 11 47 27 108 34 135 7 28 21 79 30 115 10 36 22 79 28 95 5 17
14 48 18 70 4 22 12 54 18 70 19 57 40 130 47 162 4 18 11 35 16 38 5 4 9 18
9 33 0 15 6 39 13 53 8 14 17 44 21 68 3 23 10 50 15 59 5 9 22 43 37 75 18
38 35 59 48 62 68 13 99 14 147 4 30 -6 58 -15 64 -20 5 -5 16 -9 25 -9 24 0
126 -55 179 -97 61 -48 91 -93 91 -136 0 -35 -36 -114 -88 -191 -18 -26 -32
-51 -32 -56 0 -5 -6 -15 -12 -22 -16 -18 -35 -46 -50 -78 -7 -14 -17 -30 -23
-36 -5 -6 -19 -28 -30 -50 -11 -21 -22 -41 -25 -44 -10 -9 -150 -248 -150
-256 0 -4 -8 -13 -17 -20 -13 -9 -15 -16 -7 -24 8 -8 15 -5 27 13 9 13 22 30
29 38 7 8 41 48 75 89 73 88 219 266 272 329 20 25 88 99 153 165 64 67 129
135 143 151 15 17 48 53 74 80 25 28 68 76 94 107 72 86 106 100 173 72z
m-1741 -1464 c3 -5 15 -10 25 -10 28 0 107 -56 113 -81 7 -28 -3 -90 -19 -114
-8 -11 -14 -30 -14 -43 0 -13 -6 -36 -14 -50 -13 -25 -20 -49 -47 -157 -6 -22
-14 -44 -20 -49 -5 -6 -9 -18 -9 -28 0 -9 -6 -37 -14 -60 -8 -24 -21 -70 -30
-103 -34 -121 -48 -170 -57 -192 -11 -30 -51 -39 -102 -23 -106 33 -141 80
-113 150 9 22 16 61 16 85 0 43 -1 45 -30 45 -38 0 -54 -31 -80 -146 -18 -84
-39 -131 -64 -140 -18 -7 -120 21 -151 42 -47 30 -56 70 -30 120 8 16 15 39
15 51 0 13 6 40 14 60 20 56 44 142 52 188 3 22 10 45 14 50 4 6 11 36 14 67
4 32 12 60 17 63 5 4 9 16 9 28 0 34 42 189 58 215 28 43 120 25 205 -41 41
-32 48 -64 24 -120 -8 -18 -24 -65 -38 -104 -26 -80 -20 -100 24 -89 19 4 27
16 37 53 7 27 18 62 26 80 8 17 14 41 14 53 0 11 6 33 14 48 7 15 16 43 20 62
3 19 15 50 26 68 16 26 26 32 54 32 19 0 38 -4 41 -10z m1882 0 c38 -14 63
-58 70 -123 7 -71 -6 -83 -99 -92 -40 -4 -96 -14 -125 -22 -54 -17 -63 -29
-63 -85 0 -26 3 -28 40 -28 61 0 87 -17 105 -68 19 -57 19 -106 0 -122 -18
-15 -68 -28 -162 -43 -70 -12 -112 -35 -100 -54 4 -6 41 -8 84 -5 69 4 81 2
106 -18 15 -12 27 -29 27 -39 0 -9 4 -21 9 -27 6 -5 13 -28 17 -50 9 -56 -16
-78 -104 -93 -37 -6 -85 -15 -107 -20 -128 -32 -149 -34 -190 -17 -100 42
-137 128 -105 246 5 19 16 62 26 95 9 33 22 85 29 116 7 30 17 65 24 77 6 11
11 36 11 54 1 18 7 44 15 58 8 14 15 39 15 55 0 17 7 41 15 55 8 14 14 34 15
46 0 31 35 57 88 65 70 11 181 29 232 38 66 12 94 12 127 1z"/>
<path d="M10167 9190 c-3 -11 -1 -20 4 -20 5 0 9 9 9 20 0 11 -2 20 -4 20 -2
0 -6 -9 -9 -20z"/>
<path d="M10536 8560 c-39 -12 -66 -39 -66 -66 0 -13 -4 -26 -10 -29 -5 -3
-10 -15 -10 -26 0 -19 0 -19 38 0 21 11 57 38 80 62 33 33 40 45 31 55 -13 16
-21 16 -63 4z"/>
</g>
</svg>
